<svg xmlns="http://www.w3.org/2000/svg" class="composer" style="display:block;user-select:none" viewBox="0 0 256.4 120" width="256.4" height="120"><rect x="0" y="0" width="256.4" height="120" style="fill:#ffffff"></rect><g><g transform="translate(20, 0)"><g><g><text x="38.4" y="36" style="fill:#6f6f6f;font-family:IBM Plex Mono, monospace;font-weight:400;text-anchor:end;font-size:14px" dy=".3em"><tspan>q[0]</tspan></text></g><g><text x="38.4" y="76" style="fill:#6f6f6f;font-family:IBM Plex Mono, monospace;font-weight:400;text-anchor:end;font-size:14px" dy=".3em">c1</text></g></g></g><g><g><line x1="68.4" x2="236.4" y1="36" y2="36" style="fill:none;stroke:#e0e0e0;stroke-width:1;stroke-linecap:round"></line></g><line x1="68.4" x2="236.4" y1="74" y2="74" style="fill:none;stroke:#e0e0e0;stroke-width:1;stroke-linecap:round"></line><line x1="68.4" x2="236.4" y1="78" y2="78" style="fill:none;stroke:#e0e0e0;stroke-width:1;stroke-linecap:round"></line></g><g transform="translate(76.4, 20)"><rect x="0" y="0" width="32" height="32" style="fill:#a8a8a8;stroke-width:0;stroke:transparent;paint-order:stroke"></rect><path fill-rule="evenodd" clip-rule="evenodd" d="M24.1426 15.7872L20.0075 8.625L21.09 8L25.5847 15.785L21.091 23.6234L20.0065 23.0016L24.1426 15.7872ZM7 23.3125V8.3125H8.25V23.3125H7ZM13.9107 11.7054H15.8036C16.2178 11.7054 16.5536 12.0411 16.5536 12.4554V19.1696C16.5536 19.5839 16.2178 19.9196 15.8036 19.9196H13.9107C13.4965 19.9196 13.1607 19.5839 13.1607 19.1696V12.4554C13.1607 12.0411 13.4965 11.7054 13.9107 11.7054ZM11.9107 12.4554C11.9107 11.3508 12.8061 10.4554 13.9107 10.4554H15.8036C16.9081 10.4554 17.8036 11.3508 17.8036 12.4554V19.1696C17.8036 20.2742 16.9081 21.1696 15.8036 21.1696H13.9107C12.8061 21.1696 11.9107 20.2742 11.9107 19.1696V12.4554Z" fill="#161616"></path></g><g><rect x="116.4" y="20" width="32" height="32" style="fill:#fa4d56;stroke-width:0;stroke:transparent;paint-order:stroke"></rect><text x="132.4" y="36" style="font-family:IBM Plex Sans, sans-serif;font-size:16px;font-style:normal;fill:#161616;font-weight:400;text-anchor:middle" dy=".3em">H</text></g><g><rect x="156.4" y="20" width="32" height="32" style="fill:#33b1ff;stroke-width:0;stroke:transparent;paint-order:stroke"></rect><text x="172.4" y="36" style="font-family:IBM Plex Sans, sans-serif;font-size:16px;font-style:normal;fill:#161616;font-weight:400;text-anchor:middle" dy=".3em">T</text></g><g transform="translate(212.4, 36)"><line x1="0" y1="-16" x2="0" y2="-2" style="stroke-width:1;stroke:#161616"></line><line x1="0" y1="2" x2="0" y2="16" style="stroke-width:1;stroke:#161616"></line></g></g></svg>